<svg xmlns="http://www.w3.org/2000/svg" viewBox="0 0 400 300" width="400" height="300">
    <defs>
        <linearGradient id="goldGradient" x1="0%" y1="0%" x2="100%" y2="100%">
            <stop offset="0%" style="stop-color:#FFD700;stop-opacity:1" />
            <stop offset="50%" style="stop-color:#FFA500;stop-opacity:1" />
            <stop offset="100%" style="stop-color:#B8860B;stop-opacity:1" />
        </linearGradient>
        <filter id="glow">
            <feGaussianBlur stdDeviation="3" result="coloredBlur"/>
            <feMerge> 
                <feMergeNode in="coloredBlur"/>
                <feMergeNode in="SourceGraphic"/>
            </feMerge>
        </filter>
    </defs>
    
    <!-- Background -->
    <rect width="400" height="300" fill="#0a0a0a"/>
    
    <!-- Decorative leaves left -->
    <path d="M80 80 Q90 60 110 70 Q120 80 110 100 Q100 110 90 100 Q80 90 80 80" fill="url(#goldGradient)" filter="url(#glow)"/>
    <path d="M70 100 Q80 80 100 90 Q110 100 100 120 Q90 130 80 120 Q70 110 70 100" fill="url(#goldGradient)" filter="url(#glow)"/>
    <path d="M85 120 Q95 100 115 110 Q125 120 115 140 Q105 150 95 140 Q85 130 85 120" fill="url(#goldGradient)" filter="url(#glow)"/>
    
    <!-- Decorative leaves right -->
    <path d="M320 80 Q310 60 290 70 Q280 80 290 100 Q300 110 310 100 Q320 90 320 80" fill="url(#goldGradient)" filter="url(#glow)"/>
    <path d="M330 100 Q320 80 300 90 Q290 100 300 120 Q310 130 320 120 Q330 110 330 100" fill="url(#goldGradient)" filter="url(#glow)"/>
    <path d="M315 120 Q305 100 285 110 Q275 120 285 140 Q295 150 305 140 Q315 130 315 120" fill="url(#goldGradient)" filter="url(#glow)"/>
    
    <!-- Letter V -->
    <path d="M160 60 L180 140 L200 60 L220 60 L190 160 L170 160 L140 60 Z" fill="url(#goldGradient)" filter="url(#glow)"/>
    
    <!-- Velours text -->
    <text x="200" y="220" text-anchor="middle" font-family="serif" font-size="36" font-weight="bold" fill="url(#goldGradient)" filter="url(#glow)">Velours</text>
    
    <!-- Decorative line -->
    <line x1="120" y1="240" x2="280" y2="240" stroke="url(#goldGradient)" stroke-width="2" filter="url(#glow)"/>
    <circle cx="120" cy="240" r="3" fill="url(#goldGradient)" filter="url(#glow)"/>
    <circle cx="280" cy="240" r="3" fill="url(#goldGradient)" filter="url(#glow)"/>
    
    <!-- Subtitle -->
    <text x="200" y="270" text-anchor="middle" font-family="serif" font-size="14" fill="url(#goldGradient)" opacity="0.8">Parfums de Luxe</text>
</svg>